<?xml version="1.0" encoding="UTF-8" standalone="no"?>
<svg viewBox="0 0 256 256" version="1.1" preserveAspectRatio="xMidYMid" id="svg20" sodipodi:docname="java.svg" inkscape:version="1.1.2 (08b2f3d93c, 2022-04-05)" xmlns:inkscape="http://www.inkscape.org/namespaces/inkscape" xmlns:sodipodi="http://sodipodi.sourceforge.net/DTD/sodipodi-0.dtd" xmlns="http://www.w3.org/2000/svg" xmlns:svg="http://www.w3.org/2000/svg">
   <defs id="defs24" />
   <sodipodi:namedview id="namedview22" pagecolor="#ffffff" bordercolor="#999999" borderopacity="1" inkscape:pageshadow="0" inkscape:pageopacity="0" inkscape:pagecheckerboard="0" showgrid="false" inkscape:lockguides="true" height="256px" inkscape:zoom="1.0390173" inkscape:cx="25.023644" inkscape:cy="338.78164" inkscape:window-width="1920" inkscape:window-height="1015" inkscape:window-x="0" inkscape:window-y="0" inkscape:window-maximized="1" inkscape:current-layer="g18" />
   <g id="g18">
      <path d="m 95.538839,175.08702 c 0,0 -7.639309,4.44253 5.436641,5.94582 15.84113,1.80718 23.93736,1.54801 41.3944,-1.756 0,0 4.58962,2.87781 10.99936,5.37037 -39.13409,16.7722 -88.568138,-0.97149 -57.830401,-9.56019" fill="#5382a1" id="path2" style="stroke-width:0.578805" />
      <path d="m 90.756863,153.20039 c 0,0 -8.568225,6.34238 4.517416,7.69588 16.922001,1.74576 30.285671,1.88855 53.409961,-2.56421 0,0 3.1984,3.24258 8.2277,5.01582 -47.31544,13.83567 -100.016322,1.09109 -66.155077,-10.14749" fill="#5382a1" id="path4" style="stroke-width:0.578805" />
      <path d="m 131.07041,116.07339 c 9.64262,11.10173 -2.53351,21.09188 -2.53351,21.09188 0,0 24.48426,-12.6395 13.23975,-28.46717 -10.50204,-14.760274 -18.55569,-22.094076 25.04354,-47.380086 0,0 -68.436421,17.092262 -35.74978,54.755376" fill="#e76f00" id="path6" style="stroke-width:0.578805" />
      <path d="m 182.82836,191.2757 c 0,0 5.65325,4.65805 -6.22599,8.26164 -22.58871,6.84294 -94.016626,8.90929 -113.859001,0.27264 -7.132823,-3.10303 6.243242,-7.40924 10.450842,-8.31283 4.388104,-0.95155 6.895746,-0.77427 6.895746,-0.77427 -7.932425,-5.58804 -51.27195,10.97241 -22.014335,15.71505 79.789768,12.93963 145.449138,-5.82674 124.752738,-15.16223" fill="#5382a1" id="path8" style="stroke-width:0.578805" />
      <path d="m 99.212469,130.52331 c 0,0 -36.332779,8.62965 -12.86634,11.7634 9.90826,1.32656 29.660101,1.02643 48.058461,-0.51511 15.03614,-1.26837 30.13426,-3.96514 30.13426,-3.96514 0,0 -5.30193,2.27057 -9.13775,4.88974 -36.8953,9.70351 -108.170194,5.18933 -87.651068,-4.73617 17.353052,-8.38827 31.462437,-7.43672 31.462437,-7.43672" fill="#5382a1" id="path10" style="stroke-width:0.578805" />
      <path d="m 164.38906,166.9547 c 37.50578,-19.48945 20.16458,-38.21863 8.06066,-35.69537 -2.96671,0.61748 -4.28949,1.15253 -4.28949,1.15253 0,0 1.10133,-1.72528 3.20486,-2.47208 23.94545,-8.41844 42.36104,24.82909 -7.72982,37.99718 0,5.4e-4 0.58029,-0.51834 0.75379,-0.98226" fill="#5382a1" id="path12" style="stroke-width:0.578805" />
      <path d="m 141.77665,20.487743 c 0,0 20.77129,20.778295 -19.70068,52.729443 C 89.621581,98.847495 114.67536,113.46122 122.06247,130.158 103.11832,113.06573 89.215834,98.019345 98.542709,84.015563 112.23237,63.459263 150.15734,53.492812 141.77663,20.487743" fill="#e76f00" id="path14" style="stroke-width:0.578805" />
      <path d="m 102.89797,219.76658 c 36.00087,2.30451 91.28429,-1.27861 92.59361,-18.31321 0,0 -2.5168,6.45767 -29.75279,11.58612 -30.7275,5.78255 -68.625541,5.10741 -91.103251,1.40145 5.4e-4,-5.3e-4 4.601474,3.80834 28.262431,5.32564" fill="#5382a1" id="path16" style="stroke-width:0.578805" />
   </g>
</svg>